<svg width="512" height="512" viewBox="0 0 512 512" fill="none" xmlns="http://www.w3.org/2000/svg">
<path d="M259.868 10.0016C270.933 9.88303 281.111 16.2707 286.152 26.4968L498.796 457.898C503.426 467.291 503.016 478.509 497.713 487.51C492.409 496.511 482.977 502 472.814 502H18.3749C14.5906 502 12.178 497.959 13.9735 494.628L36.9959 451.913C40.4854 445.438 47.2468 441.402 54.6016 441.402H392.938C407.756 441.402 417.428 425.85 410.877 412.559L279.251 145.523C271.835 130.479 250.308 130.696 243.198 145.888L164.469 314.091C158.262 327.352 167.941 342.569 182.583 342.569H192.436C200.609 342.569 207.948 337.598 211.099 330.057C221.994 303.986 236.198 272.46 240.712 261.771C245.381 250.716 249.201 235.009 260.864 235.079C272.712 235.15 276.153 246.622 280.322 254.557C284.492 262.493 339.361 361.55 339.361 361.55C342.983 370.887 341.903 381.483 336.476 389.825C331.049 398.168 321.985 403.167 312.288 403.167H104.509C94.4521 403.167 85.104 397.793 79.7685 388.943C74.4331 380.094 73.8616 369.016 78.2565 359.626L233.918 27.0576C238.754 16.7252 248.803 10.1203 259.868 10.0016Z" fill="#76B39D"/>
</svg>
